<?xml version="1.0" encoding="utf-8"?>
<!-- Generator: Adobe Illustrator 19.2.1, SVG Export Plug-In . SVG Version: 6.00 Build 0)  -->
<svg version="1.1" id="layer" xmlns="http://www.w3.org/2000/svg" xmlns:xlink="http://www.w3.org/1999/xlink" x="0px" y="0px"
	 viewBox="0 0 652 652" style="enable-background:new 0 0 652 652;" xml:space="preserve">
<path d="M330.9,104.3l2.9,19.5h39.5l-11.4-52.3H309l-32.3,52.3h43.3C319.9,123.8,330.9,104.3,330.9,104.3z M373.7,208L359,138.1
	h-39.5l2.9,19.5h-28.1l11.4-19.5h-43.3L219.6,208h46.6l10-18.1h51.4l2.9,18.1C330.4,208,373.7,208,373.7,208z M496.4,199.4
	c13.8-5.7,24.3-14.3,31.4-24.7c7.1-10.5,10.9-22.4,10.9-36.6h-45.2c0,1.4,0.5,2.4,0.5,3.8c0,10-3.3,17.6-10.5,23.3
	c-7.1,5.7-16.2,8.6-27.6,8.6h-17.1l7.1-35.7h-43.8L388,208h59.9C466.5,208,482.6,205.1,496.4,199.4z M464.1,105.7h17.6
	c9.1,0,15.7,1.9,20,5.2c3.3,2.9,5.7,7.1,6.2,12.9H553v-0.5c0-17.1-5.7-30-16.7-39c-10.9-8.6-27.1-13.3-49-13.3h-59.9l-10.9,52.8
	h43.3L464.1,105.7L464.1,105.7z M618.7,164.2l21.9-26.2h-76.1l10.5,24.3l-9.5,45.7h44.2L618.7,164.2L618.7,164.2z M654.9,123.8
	l44.7-52.3H652l-34.7,43.3l-16.7-43.3h-45.7l23.8,52.3H654.9L654.9,123.8z M26.4,101.9h19c6.2,0,10.9,0.9,13.3,2.4
	c2.9,1.4,3.8,4.3,3.8,8.1c0,5.7-2.9,9.5-8.6,11.4h48.1c1.6-4.6,2.4-9.4,2.4-14.3c0-11.9-4.3-21.4-13.3-28.1c-9-6.7-20.9-10-36.2-10
	H-9.8l-6.2,30.4H26.4L26.4,101.9z M245.7,71.5H135.4l-6.7,30.9h110.8L245.7,71.5L245.7,71.5z M183.9,128.5l1.4-6.7h-59.5l-1.4,6.7
	l-4.8,23.8h59.5C179.1,152.3,183.9,128.5,183.9,128.5z M214.3,177.1H102L95.9,208h112.3C208.1,208,214.3,177.1,214.3,177.1z
	 M154.4,349.8H92.5l7.1-34.7H55.4L41.2,385h106.1C147.2,385,154.4,349.8,154.4,349.8z M69.7,300.8h44.2l10.5-52.3H80.6L69.7,300.8z
	 M218.1,366.9H269l3.3,18.1h43.3L300.4,315h-39l2.9,19.5h-28.1l10.9-19.5h-42.8L161.5,385h46.6L218.1,366.9L218.1,366.9z M251,248.4
	l-32.4,52.3h42.8l10.9-19.5l3.3,19.5h39l-10.9-52.3C303.8,248.4,251,248.4,251,248.4z M349.4,339.3l-9.5,45.7h44.2l9-43.8l21.9-26.2
	h-76.6C338.5,315,349.4,339.3,349.4,339.3z M426.5,248.4l-34.7,43.3l-16.7-43.3h-45.7l23.3,52.3h76.6l44.7-52.3
	C474.1,248.4,426.5,248.4,426.5,248.4z M-5.5,277c6.2,0,10.9,0.9,13.3,2.4c2.9,1.4,3.8,3.8,3.8,7.6c0,9-6.7,13.3-20.5,13.8h59.9
	c2.4-5.2,3.3-11.4,3.3-18.1c0-12.4-4.3-21.9-12.4-28.1c-8.6-6.2-20.9-9.5-37.6-9.5h-61.4l-6.7,31.9C-63.5,277-5.5,277-5.5,277z
	 M37.4,315H-82.5L-97.3,385h42.3l8.1-37.6h18.6c21.4,0,38.1-4.3,50.4-13.3C28.8,329.2,34.1,322.6,37.4,315z M-0.2,168h20.9
	l16.2,40.4h46.6l-21.9-47.1c9-3.8,16.2-9,20.9-15.7c1.9-2.4,3.3-5.2,4.3-8.1H-35.4L-49.7,208h40.9L-0.2,168z M600.1,248.9H489.3
	l-6.2,30.9h110.4L600.1,248.9z M473.6,331.7h59.5l5.7-30.4h-59.5L473.6,331.7z M450.3,385.4h112.3l6.2-30.9H456.5
	C456.5,354.5,450.3,385.4,450.3,385.4z M728.6,258.4c-9-6.7-20.9-10-36.2-10h-64.7l-6.2,30.4h61.4c6.2,0,10.9,0.9,13.3,2.4
	c2.9,1.4,3.8,4.3,3.8,8.1c0,5.7-2.9,9.5-8.6,11.4h48c1.6-4.6,2.4-9.4,2.4-14.3C741.9,274.6,737.2,265.1,728.6,258.4z M720,322.2
	c1.9-2.4,3.3-5.2,4.3-8.1H602.1L587.8,385h40.9l8.6-40.4h20.9l16.2,40.4H721l-21.9-47.1C708.1,334.1,715.3,328.8,720,322.2z
	 M204.8,465.8h110.4l6.7-31.4H211C211,434.4,204.8,465.8,204.8,465.8z M260.5,486.8H201l-6.2,30.4h59.5
	C254.3,517.2,260.5,486.8,260.5,486.8z M172,571h111.8l6.7-30.9H178.2L172,571z M20.2,486.8h70.9l-12.4-52.3H31.2
	C31.2,434.4,20.2,486.8,20.2,486.8z M192.9,434.4h-50.4l-33.8,52.3h73.7L192.9,434.4z M81.6,521.5L76.8,501H6L-8.3,571h39.5l12.4-59
	l12.8,59h31.9l37.6-60.4L113.5,571h40.4l14.3-69.9H94.4C94.4,501,81.6,521.5,81.6,521.5z"/>
</svg>
